<svg width="102" height="103" viewBox="0 0 102 103" fill="none" xmlns="http://www.w3.org/2000/svg">
<path d="M58.75 3C59.5784 3 60.25 2.32843 60.25 1.5C60.25 0.671573 59.5784 0 58.75 0C57.9216 0 57.25 0.671573 57.25 1.5C57.25 2.32843 57.9216 3 58.75 3Z" fill="#006AFF"/>
<path d="M66.6211 4.99023C67.4495 4.99023 68.1211 4.31866 68.1211 3.49023C68.1211 2.66181 67.4495 1.99023 66.6211 1.99023C65.7927 1.99023 65.1211 2.66181 65.1211 3.49023C65.1211 4.31866 65.7927 4.99023 66.6211 4.99023Z" fill="#076EFF"/>
<path d="M73.9414 8.16992C74.7698 8.16992 75.4414 7.49835 75.4414 6.66992C75.4414 5.84149 74.7698 5.16992 73.9414 5.16992C73.113 5.16992 72.4414 5.84149 72.4414 6.66992C72.4414 7.49835 73.113 8.16992 73.9414 8.16992Z" fill="#086EFF"/>
<path d="M80.6016 12.4297C81.43 12.4297 82.1016 11.7581 82.1016 10.9297C82.1016 10.1013 81.43 9.42969 80.6016 9.42969C79.7731 9.42969 79.1016 10.1013 79.1016 10.9297C79.1016 11.7581 79.7731 12.4297 80.6016 12.4297Z" fill="#2680FF"/>
<path d="M86.4805 17.6602C87.3089 17.6602 87.9805 16.9886 87.9805 16.1602C87.9805 15.3317 87.3089 14.6602 86.4805 14.6602C85.652 14.6602 84.9805 15.3317 84.9805 16.1602C84.9805 16.9886 85.652 17.6602 86.4805 17.6602Z" fill="#1575FF"/>
<path d="M91.4805 23.7402C92.3089 23.7402 92.9805 23.0687 92.9805 22.2402C92.9805 21.4118 92.3089 20.7402 91.4805 20.7402C90.652 20.7402 89.9805 21.4118 89.9805 22.2402C89.9805 23.0687 90.652 23.7402 91.4805 23.7402Z" fill="#5EA1FF"/>
<path d="M95.4805 30.5801C96.3089 30.5801 96.9805 29.9085 96.9805 29.0801C96.9805 28.2517 96.3089 27.5801 95.4805 27.5801C94.652 27.5801 93.9805 28.2517 93.9805 29.0801C93.9805 29.9085 94.652 30.5801 95.4805 30.5801Z" fill="#81B6FF"/>
<path d="M98.3711 38.0508C99.1995 38.0508 99.8711 37.3792 99.8711 36.5508C99.8711 35.7224 99.1995 35.0508 98.3711 35.0508C97.5427 35.0508 96.8711 35.7224 96.8711 36.5508C96.8711 37.3792 97.5427 38.0508 98.3711 38.0508Z" fill="#A7CCFF"/>
<path d="M100.051 46.041C100.879 46.041 101.551 45.3694 101.551 44.541C101.551 43.7126 100.879 43.041 100.051 43.041C99.2224 43.041 98.5508 43.7126 98.5508 44.541C98.5508 45.3694 99.2224 46.041 100.051 46.041Z" fill="#D0E4FF"/>
<path d="M46.2305 102.141C47.0589 102.141 47.7305 101.469 47.7305 100.641C47.7305 99.8122 47.0589 99.1406 46.2305 99.1406C45.402 99.1406 44.7305 99.8122 44.7305 100.641C44.7305 101.469 45.402 102.141 46.2305 102.141Z" fill="#0066F5"/>
<path d="M38.1211 100.781C38.9495 100.781 39.6211 100.11 39.6211 99.2812C39.6211 98.4528 38.9495 97.7812 38.1211 97.7812C37.2927 97.7812 36.6211 98.4528 36.6211 99.2812C36.6211 100.11 37.2927 100.781 38.1211 100.781Z" fill="#006AFF"/>
<path d="M30.5117 98.1797C31.3401 98.1797 32.0117 97.5081 32.0117 96.6797C32.0117 95.8513 31.3401 95.1797 30.5117 95.1797C29.6833 95.1797 29.0117 95.8513 29.0117 96.6797C29.0117 97.5081 29.6833 98.1797 30.5117 98.1797Z" fill="#076EFF"/>
<path d="M23.5117 94.4512C24.3401 94.4512 25.0117 93.7796 25.0117 92.9512C25.0117 92.1227 24.3401 91.4512 23.5117 91.4512C22.6833 91.4512 22.0117 92.1227 22.0117 92.9512C22.0117 93.7796 22.6833 94.4512 23.5117 94.4512Z" fill="#086EFF"/>
<path d="M17.2305 89.6914C18.0589 89.6914 18.7305 89.0198 18.7305 88.1914C18.7305 87.363 18.0589 86.6914 17.2305 86.6914C16.402 86.6914 15.7305 87.363 15.7305 88.1914C15.7305 89.0198 16.402 89.6914 17.2305 89.6914Z" fill="#2680FF"/>
<path d="M11.7812 84.0215C12.6097 84.0215 13.2812 83.3499 13.2812 82.5215C13.2812 81.6931 12.6097 81.0215 11.7812 81.0215C10.9528 81.0215 10.2812 81.6931 10.2812 82.5215C10.2812 83.3499 10.9528 84.0215 11.7812 84.0215Z" fill="#1575FF"/>
<path opacity="0.8" d="M7.26172 77.5508C8.09015 77.5508 8.76172 76.8792 8.76172 76.0508C8.76172 75.2224 8.09015 74.5508 7.26172 74.5508C6.43329 74.5508 5.76172 75.2224 5.76172 76.0508C5.76172 76.8792 6.43329 77.5508 7.26172 77.5508Z" fill="#5EA1FF"/>
<path opacity="0.7" d="M3.80078 70.3809C4.62921 70.3809 5.30078 69.7093 5.30078 68.8809C5.30078 68.0524 4.62921 67.3809 3.80078 67.3809C2.97235 67.3809 2.30078 68.0524 2.30078 68.8809C2.30078 69.7093 2.97235 70.3809 3.80078 70.3809Z" fill="#81B6FF"/>
<path opacity="0.7" d="M1.5 62.6406C2.32843 62.6406 3 61.9691 3 61.1406C3 60.3122 2.32843 59.6406 1.5 59.6406C0.671573 59.6406 0 60.3122 0 61.1406C0 61.9691 0.671573 62.6406 1.5 62.6406Z" fill="#A7CCFF"/>
<circle cx="49.9805" cy="50.3105" r="32" fill="#1F93FF" fill-opacity="0.92"/>
<path d="M40.4805 65.1104H59.4805C62.3524 65.1104 64.6807 67.4387 64.6807 70.3105V70.5107H35.2803V70.3105C35.2803 67.4387 37.6086 65.1104 40.4805 65.1104Z" stroke="white" stroke-width="1.6"/>
<rect x="49.8805" y="59.7105" width="0.8" height="5.2" stroke="white" stroke-width="0.8"/>
<path d="M49.9805 30.1104C58.0991 30.1104 64.6807 36.692 64.6807 44.8105C64.6807 52.9291 58.0991 59.5107 49.9805 59.5107C41.8619 59.5107 35.2803 52.9291 35.2803 44.8105C35.2803 36.692 41.8619 30.1104 49.9805 30.1104Z" stroke="white" stroke-width="1.6"/>
<path d="M49.9805 38.1104C53.6808 38.1104 56.6807 41.1102 56.6807 44.8105C56.6807 48.5109 53.6808 51.5107 49.9805 51.5107C46.2802 51.5107 43.2803 48.5109 43.2803 44.8105C43.2803 41.1102 46.2802 38.1104 49.9805 38.1104Z" stroke="white" stroke-width="1.6"/>
<ellipse cx="49.9805" cy="44.8105" rx="1.5" ry="1.5" fill="white"/>
</svg>
